<svg xmlns="http://www.w3.org/2000/svg" xmlns:xlink="http://www.w3.org/1999/xlink" id="Layer_1" x="0" y="0" enable-background="new 0 0 180 180" version="1.1" viewBox="0 0 180 180" xml:space="preserve"><style type="text/css">.st0,.st1{fill:none;stroke:#000;stroke-width:5;stroke-miterlimit:10}.st1{stroke-width:10}</style><path d="M10.2,33.3h161.7v128.4H8.1V33.3H10.2" class="st0"/><path d="M42.2,18.3v33.1" class="st0"/><path d="M137.8,18.3v33.1" class="st0"/><path d="M73.5,80c2.1,0,3.9,1.8,3.9,3.9c0,2.2-1.8,3.9-3.9,3.9c-2.2,0-3.9-1.8-3.9-3.9S71.3,80,73.5,80" class="st1"/><path d="M106.7,80c2.1,0,3.9,1.8,3.9,3.9c0,2.2-1.8,3.9-3.9,3.9c-2.2,0-3.9-1.8-3.9-3.9C102.8,81.8,104.6,80,106.7,80" class="st1"/><path d="M139.7,80c2.1,0,3.9,1.8,3.9,3.9c0,2.2-1.8,3.9-3.9,3.9c-2.2,0-3.9-1.8-3.9-3.9S137.6,80,139.7,80" class="st1"/><path d="M40.3,109.4c2.1,0,3.9,1.8,3.9,3.9c0,2.2-1.8,3.9-3.9,3.9c-2.2,0-3.9-1.8-3.9-3.9	C36.4,111.2,38.2,109.4,40.3,109.4" class="st1"/><path d="M73.6,109.4c2.1,0,3.9,1.8,3.9,3.9c0,2.2-1.8,3.9-3.9,3.9c-2.2,0-3.9-1.8-3.9-3.9	C69.7,111.2,71.4,109.4,73.6,109.4" class="st1"/><path d="M106.6,109.4c2.1,0,3.9,1.8,3.9,3.9c0,2.2-1.8,3.9-3.9,3.9c-2.2,0-3.9-1.8-3.9-3.9	C102.7,111.2,104.4,109.4,106.6,109.4" class="st1"/></svg>